<svg width="445" height="396" viewBox="0 0 445 396" fill="none" xmlns="http://www.w3.org/2000/svg">
<path d="M270.992 45.5204C290.314 33.0866 316.235 37.6176 330.115 56.3454L435.655 198.749C450.124 218.272 446.027 245.828 426.504 260.297L255.406 387.104C235.883 401.573 208.327 397.477 193.857 377.953L176.979 355.18C177.8 354.652 178.61 354.096 179.406 353.507L350.504 226.701C370.027 212.232 374.124 184.675 359.655 165.152L270.992 45.5204ZM188.901 8.6528C208.424 -5.81634 235.981 -1.71933 250.45 17.8036L270.992 45.5204C270.171 46.0484 269.361 46.6051 268.566 47.1945L97.4687 174.001C77.9455 188.47 73.8485 216.026 88.3178 235.55L176.979 355.18C157.657 367.613 131.738 363.084 117.858 344.356L8.65287 197.008C-5.8163 177.485 -1.71944 149.929 17.8036 135.46L188.901 8.6528Z" fill="white"/>
</svg>
